# xmcd
#
# Track frame offsets:
#	150
#	19127
#	37670
#	55060
#	60882
#	70992
#	75017
#	78572
#	92327
#	100730
#	113505
#	126855
#	137195
#	159160
#	179027
#	191792
#	201602
#	214380
#	221685
#	231477
#	246632
#	260457
#	266582
#	277375
#	289100
# Disc length: 4130 seconds
# Revision: 6
# Processed by: cddbd v1.5.2PL0 Copyright (c) Steve Scherf et al.
#
# Submitted via: libkcddb 0.31
#
DISCID=76102019
DTITLE=Bernstein - Leonard Bernstein - Vol.01
DYEAR=1997
DGENRE=Classical
TTITLE0=Overture to Candide (1956)
TTITLE1=Symphonic dances from West Side Story (1957-1961) - Prologue - Allegro moderato
TTITLE2=Symphonic dances from West Side Story (1957-1961) - ''Somewhere'' - Adagio  [Orch. Sid Ramin and Irwin Kostal]
TTITLE3=Symphonic dances from West Side Story (1957-1961) - Scherzo - Vivace leggiero
TTITLE4=Symphonic dances from West Side Story (1957-1961) - Mambo - Presto
TTITLE5=Symphonic dances from West Side Story (1957-1961) - Cha-Cha (''Maria'') - Andantino con grazia
TTITLE6=Symphonic dances from West Side Story (1957-1961) - Meeting Scene - Meno mosso
TTITLE7=Symphonic dances from West Side Story (1957-1961) - ''Cool'' Fugue - Allegretto
TTITLE8=Symphonic dances from West Side Story (1957-1961) - Rumble - Molto allegro
TTITLE9=Symphonic dances from West Side Story (1957-1961) - Finale - Adagio
TTITLE10=Symphonic Suite from the film on the Waterfront (1954-1955) - Andante (with dignity)
TTITLE11=Symphonic Suite from the film on the Waterfront (1954-1955) - Adagio-Allegro molto agitato-Alla breve (poco più mosso)
TTITLE12=Symphonic Suite from the film on the Waterfront (1954-1955) - Andante largamente-More flowing-Still more flowing
TTITLE13=Symphonic Suite from the film on the Waterfront (1954-1955) - Moving  forward, with warmth - Largamente - A tempo
TTITLE14=Symphonic Suite from the film on the Waterfront (1954-1955) - Allegro non troppo, molto marcato-Poco più sostentuto
TTITLE15=Symphonic Suite from the film on the Waterfront (1954-1955) - A tempo
TTITLE16=Fancy Free (1944) - I. Enter three Sailors
TTITLE17=Fancy Free (1944) - II. Scene at the Bar
TTITLE18=Fancy Free (1944) - III. Enter two girls
TTITLE19=Fancy Free (1944) - IV. Pas de deux
TTITLE20=Fancy Free (1944) - V. Competition Scene
TTITLE21=Fancy Free (1944) - VI. Three dance variations I - Galop
TTITLE22=Fancy Free (1944) - VI. Three dance variations II - Waltz
TTITLE23=Fancy Free (1944) - VI. Three dance variations III - Danzon
TTITLE24=Fancy Free (1944) - VII. Finale
EXTD=
EXTT0=[New York Philharmonic, 1960]
EXTT1=[New York Philharmonic, 1961]
EXTT2=
EXTT3=
EXTT4=
EXTT5=
EXTT6=
EXTT7=
EXTT8=
EXTT9=
EXTT10=[New York Philharmonic, 1960]
EXTT11=
EXTT12=
EXTT13=
EXTT14=
EXTT15=
EXTT16=[New York Philharmonic, 1963]
EXTT17=
EXTT18=
EXTT19=
EXTT20=
EXTT21=
EXTT22=
EXTT23=
EXTT24=
PLAYORDER=
